<mxfile host="app.diagrams.net" agent="Mozilla/5.0 (X11; Linux x86_64) AppleWebKit/537.36 (KHTML, like Gecko) Chrome/137.0.0.0 Safari/537.36" version="28.0.6">
  <diagram name="Page-1" id="S51A4lSwU9abpV6ZqBQd">
    <mxGraphModel dx="1188" dy="633" grid="1" gridSize="10" guides="1" tooltips="1" connect="1" arrows="1" fold="1" page="1" pageScale="1" pageWidth="850" pageHeight="1100" math="0" shadow="0">
      <root>
        <mxCell id="0" />
        <mxCell id="1" parent="0" />
        <mxCell id="9tGOehU8zUhm0i1BPU98-1" value="server" style="rounded=0;whiteSpace=wrap;html=1;align=center;verticalAlign=top;" vertex="1" parent="1">
          <mxGeometry x="320" y="160" width="480" height="400" as="geometry" />
        </mxCell>
        <mxCell id="9tGOehU8zUhm0i1BPU98-2" value="nginx" style="rounded=0;whiteSpace=wrap;html=1;" vertex="1" parent="1">
          <mxGeometry x="500" y="330" width="120" height="60" as="geometry" />
        </mxCell>
        <mxCell id="9tGOehU8zUhm0i1BPU98-4" value="&lt;pre style=&quot;box-sizing: border-box; font-family: &amp;quot;Monaspace Neon&amp;quot;, ui-monospace, SFMono-Regular, &amp;quot;SF Mono&amp;quot;, Menlo, Consolas, &amp;quot;Liberation Mono&amp;quot;, monospace; font-size: 13.6px; margin-top: 0px; margin-bottom: 0px; overflow-wrap: normal; padding: 16px; overflow: auto; line-height: 1.45; color: rgb(31, 35, 40); background-color: rgb(246, 248, 250); border-radius: 6px; text-align: start;&quot; class=&quot;notranslate&quot;&gt;&lt;code style=&quot;box-sizing: border-box; font-family: &amp;quot;Monaspace Neon&amp;quot;, ui-monospace, SFMono-Regular, &amp;quot;SF Mono&amp;quot;, Menlo, Consolas, &amp;quot;Liberation Mono&amp;quot;, monospace; font-size: 13.6px; padding: 0px; margin: 0px; background: rgba(0, 0, 0, 0); border-radius: 6px; word-break: normal; border: 0px; display: inline; overflow: visible; line-height: inherit; overflow-wrap: normal;&quot;&gt;ip1: 192.168.1.15&lt;/code&gt;&lt;/pre&gt;" style="rounded=1;whiteSpace=wrap;html=1;" vertex="1" parent="1">
          <mxGeometry x="225" y="250" width="190" height="60" as="geometry" />
        </mxCell>
        <mxCell id="9tGOehU8zUhm0i1BPU98-5" value="&lt;pre style=&quot;box-sizing: border-box; font-family: &amp;quot;Monaspace Neon&amp;quot;, ui-monospace, SFMono-Regular, &amp;quot;SF Mono&amp;quot;, Menlo, Consolas, &amp;quot;Liberation Mono&amp;quot;, monospace; font-size: 13.6px; margin-top: 0px; margin-bottom: 0px; overflow-wrap: normal; padding: 16px; overflow: auto; line-height: 1.45; color: rgb(31, 35, 40); background-color: rgb(246, 248, 250); border-radius: 6px; text-align: start;&quot; class=&quot;notranslate&quot;&gt;&lt;code style=&quot;box-sizing: border-box; font-family: &amp;quot;Monaspace Neon&amp;quot;, ui-monospace, SFMono-Regular, &amp;quot;SF Mono&amp;quot;, Menlo, Consolas, &amp;quot;Liberation Mono&amp;quot;, monospace; font-size: 13.6px; padding: 0px; margin: 0px; background: rgba(0, 0, 0, 0); border-radius: 6px; word-break: normal; border: 0px; display: inline; overflow: visible; line-height: inherit; overflow-wrap: normal;&quot;&gt;ip2: 192.168.1.16&lt;/code&gt;&lt;/pre&gt;" style="rounded=1;whiteSpace=wrap;html=1;strokeWidth=1;" vertex="1" parent="1">
          <mxGeometry x="230" y="410" width="180" height="60" as="geometry" />
        </mxCell>
        <mxCell id="9tGOehU8zUhm0i1BPU98-7" value="site1" style="verticalLabelPosition=bottom;html=1;verticalAlign=top;align=center;strokeColor=none;fillColor=#000000;shape=mxgraph.azure.script_file;pointerEvents=1;" vertex="1" parent="1">
          <mxGeometry x="695" y="200" width="70" height="90" as="geometry" />
        </mxCell>
        <mxCell id="9tGOehU8zUhm0i1BPU98-8" value="site2" style="verticalLabelPosition=bottom;html=1;verticalAlign=top;align=center;strokeColor=none;fillColor=#000000;shape=mxgraph.azure.script_file;pointerEvents=1;" vertex="1" parent="1">
          <mxGeometry x="695" y="430" width="70" height="90" as="geometry" />
        </mxCell>
        <mxCell id="9tGOehU8zUhm0i1BPU98-10" value="" style="endArrow=none;html=1;rounded=0;entryX=0;entryY=0.75;entryDx=0;entryDy=0;exitX=1;exitY=0.5;exitDx=0;exitDy=0;strokeColor=#3333FF;strokeWidth=3;" edge="1" parent="1" source="9tGOehU8zUhm0i1BPU98-5" target="9tGOehU8zUhm0i1BPU98-2">
          <mxGeometry width="50" height="50" relative="1" as="geometry">
            <mxPoint x="500" y="370" as="sourcePoint" />
            <mxPoint x="550" y="320" as="targetPoint" />
          </mxGeometry>
        </mxCell>
        <mxCell id="9tGOehU8zUhm0i1BPU98-12" value="" style="endArrow=none;html=1;rounded=0;entryX=0;entryY=0.5;entryDx=0;entryDy=0;strokeWidth=3;strokeColor=#3333FF;" edge="1" parent="1" target="9tGOehU8zUhm0i1BPU98-5">
          <mxGeometry width="50" height="50" relative="1" as="geometry">
            <mxPoint x="80" y="440" as="sourcePoint" />
            <mxPoint x="140" y="380" as="targetPoint" />
          </mxGeometry>
        </mxCell>
        <mxCell id="9tGOehU8zUhm0i1BPU98-13" value="port 80" style="edgeLabel;html=1;align=center;verticalAlign=middle;resizable=0;points=[];" vertex="1" connectable="0" parent="9tGOehU8zUhm0i1BPU98-12">
          <mxGeometry x="-0.0101" relative="1" as="geometry">
            <mxPoint as="offset" />
          </mxGeometry>
        </mxCell>
        <mxCell id="9tGOehU8zUhm0i1BPU98-14" value="" style="endArrow=none;html=1;rounded=0;entryX=0;entryY=0.5;entryDx=0;entryDy=0;strokeColor=#FF3333;strokeWidth=3;" edge="1" parent="1" target="9tGOehU8zUhm0i1BPU98-4">
          <mxGeometry width="50" height="50" relative="1" as="geometry">
            <mxPoint x="80" y="280" as="sourcePoint" />
            <mxPoint x="400" y="390" as="targetPoint" />
          </mxGeometry>
        </mxCell>
        <mxCell id="9tGOehU8zUhm0i1BPU98-15" value="port 80" style="edgeLabel;html=1;align=center;verticalAlign=middle;resizable=0;points=[];" vertex="1" connectable="0" parent="9tGOehU8zUhm0i1BPU98-14">
          <mxGeometry x="-0.0101" relative="1" as="geometry">
            <mxPoint as="offset" />
          </mxGeometry>
        </mxCell>
        <mxCell id="9tGOehU8zUhm0i1BPU98-17" value="" style="endArrow=none;html=1;rounded=0;entryX=0.04;entryY=0.04;entryDx=0;entryDy=0;exitX=1;exitY=0.75;exitDx=0;exitDy=0;strokeColor=#3333FF;strokeWidth=3;entryPerimeter=0;" edge="1" parent="1" source="9tGOehU8zUhm0i1BPU98-2" target="9tGOehU8zUhm0i1BPU98-8">
          <mxGeometry width="50" height="50" relative="1" as="geometry">
            <mxPoint x="510" y="455" as="sourcePoint" />
            <mxPoint x="640" y="390" as="targetPoint" />
          </mxGeometry>
        </mxCell>
        <mxCell id="9tGOehU8zUhm0i1BPU98-18" value="" style="endArrow=none;html=1;rounded=0;entryX=0;entryY=0.25;entryDx=0;entryDy=0;exitX=1;exitY=0.5;exitDx=0;exitDy=0;strokeColor=#FF3333;strokeWidth=3;" edge="1" parent="1" source="9tGOehU8zUhm0i1BPU98-4" target="9tGOehU8zUhm0i1BPU98-2">
          <mxGeometry width="50" height="50" relative="1" as="geometry">
            <mxPoint x="440" y="475" as="sourcePoint" />
            <mxPoint x="570" y="410" as="targetPoint" />
          </mxGeometry>
        </mxCell>
        <mxCell id="9tGOehU8zUhm0i1BPU98-19" value="" style="endArrow=none;html=1;rounded=0;entryX=0.04;entryY=0.96;entryDx=0;entryDy=0;exitX=1;exitY=0.25;exitDx=0;exitDy=0;strokeColor=#FF3333;strokeWidth=3;entryPerimeter=0;" edge="1" parent="1" source="9tGOehU8zUhm0i1BPU98-2" target="9tGOehU8zUhm0i1BPU98-7">
          <mxGeometry width="50" height="50" relative="1" as="geometry">
            <mxPoint x="530" y="320" as="sourcePoint" />
            <mxPoint x="655" y="385" as="targetPoint" />
          </mxGeometry>
        </mxCell>
      </root>
    </mxGraphModel>
  </diagram>
</mxfile>
